<?xml version="1.0" encoding="UTF-8" standalone="no" ?>
<!DOCTYPE svg PUBLIC "-//W3C//DTD SVG 1.1//EN" "http://www.w3.org/Graphics/SVG/1.1/DTD/svg11.dtd">
<svg xmlns="http://www.w3.org/2000/svg" xmlns:xlink="http://www.w3.org/1999/xlink" version="1.1" width="1280" height="1024" viewBox="0 0 1280 1024" xml:space="preserve">
<desc>Created with Fabric.js 5.3.0</desc>
<defs>
</defs>
<g transform="matrix(1 0 0 1 640 512)" id="background-logo"  >
<rect style="stroke: none; stroke-width: 0; stroke-dasharray: none; stroke-linecap: butt; stroke-dashoffset: 0; stroke-linejoin: miter; stroke-miterlimit: 4; fill: rgb(255,255,255); fill-rule: nonzero; opacity: 1;"  paint-order="stroke"  x="-640" y="-512" rx="0" ry="0" width="1280" height="1024" />
</g>
<g transform="matrix(1.3456590568522453 0 0 1.3456590568522464 251.23727016258317 449.4395166199929)" id="logo-logo"  >
<g style=""  paint-order="stroke"   >
		<g transform="matrix(1.3815967620860754 0 0 1.3815967620860754 0 0)"  >
<g style=""  paint-order="stroke"   >
		<g transform="matrix(1 0 0 1 0 0)"  >
<path style="stroke: none; stroke-width: 1; stroke-dasharray: none; stroke-linecap: butt; stroke-dashoffset: 0; stroke-linejoin: miter; stroke-miterlimit: 4; fill: rgb(255,87,88); fill-rule: nonzero; opacity: 1;"  paint-order="stroke"  transform=" translate(-100, -95)" d="M 200 72.6 L 130.9 62.599999999999994 L 100 0 L 69.1 62.5 L 0 72.6 L 50 121.3 L 38.2 190 L 100 157.5 L 161.8 190 L 150 121.3 L 200 72.6 z M 100 146.3 L 51.5 171.8 L 60.8 117.80000000000001 L 21.5 79.5 L 75.7 71.6 L 100 22.6 L 124.3 71.7 L 178.5 79.60000000000001 L 139.2 117.80000000000001 L 148.5 171.8 L 100 146.3 z" stroke-linecap="round" />
</g>
</g>
</g>
		<g transform="matrix(0.8809123963153142 0 0 0.8809123963153142 0 4.885763167331902)"  >
<g style=""  paint-order="stroke"   >
		<g transform="matrix(1 0 0 1 0 0)"  >
<polygon style="stroke: none; stroke-width: 1; stroke-dasharray: none; stroke-linecap: butt; stroke-dashoffset: 0; stroke-linejoin: miter; stroke-miterlimit: 4; fill: rgb(255,87,88); fill-rule: nonzero; opacity: 1;"  paint-order="stroke"  points="100,-22.430000000000007 30.900000000000006,-32.46 0,-95 -30.900000000000006,-32.46 -100,-22.430000000000007 -50,26.260000000000005 -61.8,95 0,62.55000000000001 61.80000000000001,95 50,26.260000000000005 100,-22.430000000000007 " />
</g>
</g>
</g>
</g>
</g>
<g transform="matrix(1.9211538461538462 0 0 1.9211538461538462 841.8830006809885 458.6586428020468)" id="text-logo"  >
<g style=""  paint-order="stroke"   >
		<g transform="matrix(1 0 0 1 0 0)" id="text-logo-path-0"  >
<path style="stroke: none; stroke-width: 0; stroke-dasharray: none; stroke-linecap: butt; stroke-dashoffset: 0; stroke-linejoin: miter; stroke-miterlimit: 4; fill: rgb(255,87,88); fill-rule: nonzero; opacity: 1;"  paint-order="stroke"  transform=" translate(-210.76999999999998, 27.23)" d="M 28.56 0.98 Q 15.33 0.98 8.16 -5.74 Q 0.98 -12.46 0.98 -27.23 L 0.98 -27.23 Q 0.98 -55.44 28.42 -55.44 L 28.42 -55.44 Q 35.07 -55.44 40.78 -53.83 Q 46.48 -52.22 49.28 -50.26 L 49.28 -50.26 L 49.28 -32.76 L 32.48 -32.76 L 32.48 -37.8 Q 32.48 -40.46 31.29 -41.72 Q 30.1 -42.98 27.72 -42.98 L 27.72 -42.98 Q 25.34 -42.98 24.15 -41.72 Q 22.96 -40.46 22.96 -37.8 L 22.96 -37.8 L 22.96 -16.66 Q 22.96 -14 24.15 -12.74 Q 25.34 -11.48 27.72 -11.48 L 27.72 -11.48 Q 30.1 -11.48 31.29 -12.74 Q 32.48 -14 32.48 -16.66 L 32.48 -16.66 L 32.48 -22.33 L 49.28 -22.33 L 49.28 -4.2 Q 46.41 -2.24 40.78 -0.63 Q 35.14 0.98 28.56 0.98 L 28.56 0.98 Z M 75.81 0.98 Q 65.87 0.98 60.27 -4.24 Q 54.67 -9.45 54.67 -19.46 L 54.67 -19.46 Q 54.67 -29.47 60.27 -34.69 Q 65.87 -39.9 75.81 -39.9 L 75.81 -39.9 Q 85.68 -39.9 90.06 -34.76 Q 94.43 -29.61 94.43 -21.98 L 94.43 -21.98 L 94.43 -16.94 L 71.75 -16.94 L 71.75 -16.52 Q 71.75 -13.93 73.29 -12.71 Q 74.83 -11.48 78.4 -11.48 L 78.4 -11.48 Q 82.67 -11.48 86.52 -12.11 Q 90.37 -12.74 93.24 -13.72 L 93.24 -13.72 L 93.24 -2.52 Q 90.79 -1.19 86.06 -0.11 Q 81.34 0.98 75.81 0.98 L 75.81 0.98 Z M 71.75 -24.64 L 79.87 -24.64 L 79.87 -25.48 Q 79.87 -27.86 78.86 -28.91 Q 77.84 -29.96 75.81 -29.96 L 75.81 -29.96 Q 73.78 -29.96 72.77 -28.88 Q 71.75 -27.79 71.75 -25.48 L 71.75 -25.48 L 71.75 -24.64 Z M 121.94 0.07 L 99.68 0.07 L 99.68 -11.48 L 102.76 -11.48 L 102.76 -42.98 L 99.68 -42.98 L 99.68 -54.46 L 118.86 -54.46 L 118.86 -11.48 L 121.94 -11.48 L 121.94 0.07 Z M 148.19 0.98 Q 138.25 0.98 132.65 -4.24 Q 127.05 -9.45 127.05 -19.46 L 127.05 -19.46 Q 127.05 -29.47 132.65 -34.69 Q 138.25 -39.9 148.19 -39.9 L 148.19 -39.9 Q 158.06 -39.9 162.44 -34.76 Q 166.81 -29.61 166.81 -21.98 L 166.81 -21.98 L 166.81 -16.94 L 144.13 -16.94 L 144.13 -16.52 Q 144.13 -13.93 145.67 -12.71 Q 147.21 -11.48 150.78 -11.48 L 150.78 -11.48 Q 155.05 -11.48 158.9 -12.11 Q 162.75 -12.74 165.62 -13.72 L 165.62 -13.72 L 165.62 -2.52 Q 163.17 -1.19 158.45 -0.11 Q 153.72 0.98 148.19 0.98 L 148.19 0.98 Z M 144.13 -24.64 L 152.25 -24.64 L 152.25 -25.48 Q 152.25 -27.86 151.24 -28.91 Q 150.22 -29.96 148.19 -29.96 L 148.19 -29.96 Q 146.16 -29.96 145.15 -28.88 Q 144.13 -27.79 144.13 -25.48 L 144.13 -25.48 L 144.13 -24.64 Z M 202.09 0.98 Q 198.52 0.98 195.76 -0.77 Q 192.99 -2.52 191.24 -4.76 L 191.24 -4.76 L 191.24 0 L 172.06 0 L 172.06 -11.48 L 175.14 -11.48 L 175.14 -42.98 L 172.06 -42.98 L 172.06 -54.46 L 191.24 -54.46 L 191.24 -34.16 Q 192.99 -36.4 195.76 -38.15 Q 198.52 -39.9 202.09 -39.9 L 202.09 -39.9 Q 209.23 -39.9 212.84 -34.58 Q 216.44 -29.26 216.44 -19.46 L 216.44 -19.46 Q 216.44 -9.66 212.84 -4.34 Q 209.23 0.98 202.09 0.98 L 202.09 0.98 Z M 195.3 -11.48 Q 197.33 -11.48 198.35 -12.57 Q 199.36 -13.65 199.36 -15.96 L 199.36 -15.96 L 199.36 -22.96 Q 199.36 -25.27 198.35 -26.36 Q 197.33 -27.44 195.3 -27.44 L 195.3 -27.44 Q 193.27 -27.44 192.26 -26.36 Q 191.24 -25.27 191.24 -22.96 L 191.24 -22.96 L 191.24 -15.96 Q 191.24 -13.65 192.26 -12.57 Q 193.27 -11.48 195.3 -11.48 L 195.3 -11.48 Z M 275.24 -42.98 L 275.24 -54.46 L 298.62 -54.46 L 298.62 -42.98 L 295.82 -42.98 L 283.29 0 L 260.61 0 L 248.08 -42.98 L 245.28 -42.98 L 245.28 -54.46 L 272.16 -54.46 L 272.16 -42.98 L 268.52 -42.98 L 273.35 -19.53 L 274.05 -19.53 L 278.88 -42.98 L 275.24 -42.98 Z M 319.83 0.98 Q 309.89 0.98 304.29 -4.24 Q 298.69 -9.45 298.69 -19.46 L 298.69 -19.46 Q 298.69 -29.47 304.29 -34.69 Q 309.89 -39.9 319.83 -39.9 L 319.83 -39.9 Q 329.91 -39.9 335.44 -34.62 Q 340.97 -29.33 340.97 -19.46 L 340.97 -19.46 Q 340.97 -9.45 335.37 -4.24 Q 329.77 0.98 319.83 0.98 L 319.83 0.98 Z M 319.83 -11.48 Q 321.86 -11.48 322.88 -12.57 Q 323.89 -13.65 323.89 -15.96 L 323.89 -15.96 L 323.89 -22.96 Q 323.89 -25.27 322.88 -26.36 Q 321.86 -27.44 319.83 -27.44 L 319.83 -27.44 Q 317.8 -27.44 316.79 -26.36 Q 315.77 -25.27 315.77 -22.96 L 315.77 -22.96 L 315.77 -15.96 Q 315.77 -13.65 316.79 -12.57 Q 317.8 -11.48 319.83 -11.48 L 319.83 -11.48 Z M 363.65 0.98 Q 356.23 0.98 352.49 -2.63 Q 348.74 -6.23 348.74 -14.77 L 348.74 -14.77 L 348.74 -27.44 L 345.66 -27.44 L 345.66 -38.92 Q 348.32 -38.92 349.65 -40.29 Q 350.98 -41.65 350.98 -44.03 L 350.98 -44.03 L 350.98 -47.18 L 365.82 -47.18 L 365.82 -38.92 L 375.27 -38.92 L 375.27 -27.44 L 365.82 -27.44 L 365.82 -15.96 Q 365.82 -13.65 366.84 -12.57 Q 367.85 -11.48 369.88 -11.48 L 369.88 -11.48 Q 372.54 -11.48 375.69 -12.11 L 375.69 -12.11 L 375.69 -1.12 Q 373.73 -0.35 370.41 0.32 Q 367.08 0.98 363.65 0.98 L 363.65 0.98 Z M 401.94 0.98 Q 392 0.98 386.4 -4.24 Q 380.8 -9.45 380.8 -19.46 L 380.8 -19.46 Q 380.8 -29.47 386.4 -34.69 Q 392 -39.9 401.94 -39.9 L 401.94 -39.9 Q 411.81 -39.9 416.19 -34.76 Q 420.56 -29.61 420.56 -21.98 L 420.56 -21.98 L 420.56 -16.94 L 397.88 -16.94 L 397.88 -16.52 Q 397.88 -13.93 399.42 -12.71 Q 400.96 -11.48 404.53 -11.48 L 404.53 -11.48 Q 408.8 -11.48 412.65 -12.11 Q 416.5 -12.74 419.37 -13.72 L 419.37 -13.72 L 419.37 -2.52 Q 416.92 -1.19 412.19 -0.11 Q 407.47 0.98 401.94 0.98 L 401.94 0.98 Z M 397.88 -24.64 L 406 -24.64 L 406 -25.48 Q 406 -27.86 404.99 -28.91 Q 403.97 -29.96 401.94 -29.96 L 401.94 -29.96 Q 399.91 -29.96 398.89 -28.88 Q 397.88 -27.79 397.88 -25.48 L 397.88 -25.48 L 397.88 -24.64 Z" stroke-linecap="round" />
</g>
</g>
</g>
<g transform="matrix(1.9211538461538462 0 0 1.9211538461538462 842.3873215207236 579.7862401097391)" id="tagline-b0ca5a7d-60b0-4431-b96b-36f061bcd5f0-logo"  >
<g style=""  paint-order="stroke"   >
		<g transform="matrix(1 0 0 1 0 0)" id="tagline-b0ca5a7d-60b0-4431-b96b-36f061bcd5f0-logo-path-0"  >
<path style="stroke: rgb(255,255,255); stroke-width: 0; stroke-dasharray: none; stroke-linecap: butt; stroke-dashoffset: 0; stroke-linejoin: miter; stroke-miterlimit: 4; fill: rgb(255,117,117); fill-rule: nonzero; opacity: 1;"  paint-order="stroke"  transform=" translate(-128.97, 8.115)" d="M 10.47 -20.97 L 0.75 -20.97 L 0.75 -17.04 L 2.43 -17.04 L 2.43 -3.96 L 0.75 -3.96 L 0.75 0 L 10.41 0 L 10.41 -3.96 L 8.58 -3.96 L 8.58 -8.61 L 10.86 -8.61 C 15.27 -8.61 18.75 -10.68 18.75 -14.55 C 18.75 -18.24 17.19 -20.97 10.47 -20.97 Z M 8.58 -11.85 L 8.58 -17.07 L 10.08 -17.07 C 11.85 -17.07 12.87 -16.11 12.87 -14.34 C 12.87 -12.78 11.7 -11.85 9.93 -11.85 Z M 20.79 -19.38 C 20.79 -17.94 22.2 -16.35 24.03 -16.35 C 26.07 -16.35 27.33 -17.67 27.33 -19.38 C 27.33 -20.82 26.04 -22.44 24.03 -22.44 C 22.02 -22.44 20.79 -20.82 20.79 -19.38 Z M 19.95 0 L 28.35 0 L 28.35 -3.93 L 26.91 -3.93 L 26.91 -15 L 19.95 -15 L 19.95 -11.1 L 21.21 -11.1 L 21.21 -3.93 L 19.95 -3.93 Z M 39.9 -8.22 L 44.31 -8.22 L 44.31 -15 L 40.77 -15 L 40.26 -13.56 C 39.51 -14.43 38.31 -15.27 36.51 -15.27 C 32.55 -15.27 29.13 -12.75 29.13 -7.59 C 29.13 -2.4 32.82 0.42 37.38 0.42 C 40.41 0.42 43.17 -0.93 44.73 -2.64 L 42.09 -5.7 C 41.04 -4.59 40.02 -3.99 38.55 -3.99 C 36.63 -3.99 35.37 -5.49 35.37 -7.53 C 35.37 -9.66 36.33 -11.37 38.01 -11.37 C 39.24 -11.37 39.81 -9.93 39.9 -8.22 Z M 46.17 0 L 54.18 0 L 54.18 -3.93 L 53.07 -3.93 L 53.07 -6.45 L 54.12 -7.17 L 56.4 -3.93 L 55.14 -3.93 L 55.14 0 L 64.02 0 L 64.02 -3.93 L 62.52 -3.93 L 58.47 -9.72 L 60.51 -11.01 L 62.82 -11.01 L 62.82 -14.97 L 54.42 -14.97 L 54.42 -11.01 L 56.58 -11.01 L 53.1 -8.94 L 53.1 -22.5 L 46.17 -22.5 L 46.17 -18.57 L 47.4 -18.57 L 47.4 -3.9 L 46.17 -3.9 Z M 83.61 -11.19 L 81.66 -6.51 L 79.71 -11.19 L 81.12 -11.19 L 81.12 -15 L 71.88 -15 L 71.88 -11.16 L 73.11 -11.16 L 78.96 -0.06 L 78.54 1.2 C 78.27 2.07 77.61 2.82 76.86 2.82 C 76.32 2.82 75.66 2.46 74.88 1.77 L 72.63 5.31 C 73.68 6.24 74.91 6.72 76.26 6.81 C 77.61 6.81 78.69 6.6 79.56 6.21 C 81.24 5.37 81.9 4.26 82.71 2.58 L 88.41 -11.28 L 89.85 -11.28 L 89.85 -15 L 82.23 -15 L 82.23 -11.19 Z M 98.25 0.39 C 102.84 0.39 106.44 -2.49 106.44 -7.32 C 106.44 -12.33 102.9 -15.3 98.1 -15.36 C 96.69 -15.36 95.34 -15.06 94.08 -14.43 C 91.56 -13.17 89.88 -10.71 89.88 -7.44 C 89.88 -5.79 90.27 -4.35 91.05 -3.18 C 92.61 -0.81 95.34 0.39 98.25 0.39 Z M 96.03 -7.53 C 96.03 -8.64 96.24 -9.57 96.63 -10.32 C 97.02 -11.07 97.53 -11.46 98.1 -11.46 C 99.45 -11.43 100.29 -9.75 100.29 -7.44 C 100.29 -5.13 99.48 -3.45 98.25 -3.45 C 96.96 -3.45 96.03 -5.1 96.03 -7.53 Z M 107.22 -15 L 107.22 -11.04 L 108.48 -11.04 L 108.48 -6.9 C 108.48 -4.35 108.93 -2.49 109.83 -1.32 C 110.73 -0.15 112.29 0.42 114.51 0.42 C 115.29 0.42 116.01 0.27 116.64 -0.03 C 117.27 -0.3 117.75 -0.66 118.14 -1.11 C 118.5 -1.56 118.71 -1.8 118.77 -1.89 L 119.58 0 L 125.25 0 L 125.25 -3.99 L 123.78 -3.99 L 123.78 -15 L 116.01 -15 L 116.01 -11.04 L 117.99 -11.04 L 117.99 -6.27 C 117.99 -4.95 117.18 -3.99 116.1 -3.99 C 114.9 -3.99 114.48 -5.13 114.48 -7.77 L 114.48 -15 Z M 134.94 0 L 134.94 -3.93 L 133.44 -3.93 L 133.44 -7.02 C 133.44 -9.54 134.79 -10.35 137.67 -10.35 L 137.67 -15.54 C 134.64 -15.54 133.89 -14.73 133.02 -13.08 L 132.12 -15 L 126.48 -15 L 126.48 -11.1 L 127.77 -11.1 L 127.77 -3.93 L 126.45 -3.93 L 126.45 0 Z M 156.15 -18.84 L 157.95 -22.29 C 157.56 -22.5 156.9 -22.68 156.03 -22.83 C 155.16 -22.98 154.32 -23.04 153.54 -23.04 C 151.2 -23.04 149.64 -22.47 148.83 -21.33 C 148.02 -20.16 147.6 -18.9 147.6 -17.55 L 147.6 -15 L 146.37 -15 L 146.37 -11.1 L 147.6 -11.1 L 147.6 -3.93 L 146.4 -3.93 L 146.4 0 L 155.34 0 L 155.34 -3.93 L 153.54 -3.93 L 153.54 -11.1 L 156.27 -11.1 L 156.27 -15 L 153.54 -15 L 153.54 -17.55 C 153.54 -18.6 153.87 -19.14 154.5 -19.14 C 155.16 -19.14 155.7 -19.05 156.15 -18.84 Z M 158.28 -13.74 L 159.54 -10.26 C 161.01 -11.07 162.42 -11.64 164.01 -11.64 C 165.81 -11.64 166.86 -11.19 166.86 -9.96 L 166.86 -8.91 C 166.53 -9.3 165.42 -9.96 163.89 -9.96 C 160.47 -9.96 157.65 -7.77 157.65 -4.44 C 157.65 -1.11 160.59 0.57 163.56 0.57 C 164.91 0.57 166.62 0 167.61 -1.35 L 168.33 0 L 174.75 0 L 174.75 -3.84 L 172.95 -3.84 L 172.95 -9.69 C 172.95 -11.19 172.56 -12.39 171.75 -13.32 C 170.13 -15.15 167.55 -15.87 164.82 -15.87 C 162.81 -15.87 160.65 -15.15 158.28 -13.74 Z M 163.35 -4.74 C 163.35 -5.7 163.92 -6.33 165.09 -6.33 C 165.93 -6.33 166.53 -6.03 166.86 -5.46 L 166.86 -4.32 C 166.53 -3.81 165.78 -3.33 164.94 -3.33 C 164.01 -3.33 163.35 -3.9 163.35 -4.74 Z M 185.1 -4.86 L 184.98 -4.86 C 184.89 -5.49 184.59 -6.9 184.2 -8.01 L 182.82 -11.19 L 184.32 -11.19 L 184.32 -15 L 175.2 -15 L 175.2 -11.19 L 176.61 -11.19 L 182.19 0 L 186.84 0 L 192.03 -11.19 L 193.59 -11.19 L 193.59 -15 L 185.85 -15 L 185.85 -11.19 L 187.44 -11.19 L 186 -8.16 C 185.52 -7.05 185.13 -5.55 185.1 -4.86 Z M 201.54 0 L 205.29 0 L 205.56 -1.83 C 206.31 -0.6 208.11 0.36 210.15 0.36 C 213.12 0.36 215.73 -1.38 215.73 -4.14 C 215.73 -5.13 215.52 -5.91 215.07 -6.54 C 214.17 -7.74 212.97 -8.22 210.9 -8.94 L 209.82 -9.3 C 207.99 -9.87 207.21 -10.17 207.21 -10.8 C 207.21 -11.52 207.69 -11.88 208.38 -11.88 C 209.16 -11.88 209.88 -11.67 210.51 -11.22 C 211.14 -10.77 211.44 -10.23 211.44 -9.6 L 215.34 -9.6 L 215.34 -15 L 211.65 -15 L 211.41 -13.02 C 210.78 -14.34 208.95 -15.36 206.94 -15.36 C 206.16 -15.36 205.35 -15.21 204.54 -14.88 C 202.89 -14.25 201.66 -12.93 201.66 -11.01 C 201.66 -8.46 203.25 -7.05 205.65 -6.21 C 206.22 -6 206.88 -5.82 207.66 -5.64 C 209.37 -5.19 210.06 -4.92 210.06 -4.41 C 210.06 -3.72 209.61 -3.39 208.74 -3.39 C 208.05 -3.39 207.36 -3.54 206.64 -3.87 C 205.92 -4.2 205.56 -4.71 205.56 -5.4 L 201.54 -5.4 Z M 216.78 -15 L 216.78 -11.1 L 218.4 -11.1 L 218.4 -5.76 C 218.43 -4.2 218.55 -3 218.73 -2.19 C 219.09 -0.51 220.29 0.54 223.14 0.54 C 223.59 0.54 224.19 0.48 225 0.39 C 225.78 0.27 226.38 0.12 226.77 -0.03 L 226.77 -3.87 C 226.17 -3.63 225.24 -3.36 224.88 -3.36 C 224.16 -3.36 223.89 -3.9 223.89 -4.77 L 223.92 -5.76 L 223.92 -11.1 L 226.77 -11.1 L 226.77 -15 L 223.92 -15 L 223.92 -19.53 L 218.4 -17.76 L 218.4 -15 Z M 228.3 -13.74 L 229.56 -10.26 C 231.03 -11.07 232.44 -11.64 234.03 -11.64 C 235.83 -11.64 236.88 -11.19 236.88 -9.96 L 236.88 -8.91 C 236.55 -9.3 235.44 -9.96 233.91 -9.96 C 230.49 -9.96 227.67 -7.77 227.67 -4.44 C 227.67 -1.11 230.61 0.57 233.58 0.57 C 234.93 0.57 236.64 0 237.63 -1.35 L 238.35 0 L 244.77 0 L 244.77 -3.84 L 242.97 -3.84 L 242.97 -9.69 C 242.97 -11.19 242.58 -12.39 241.77 -13.32 C 240.15 -15.15 237.57 -15.87 234.84 -15.87 C 232.83 -15.87 230.67 -15.15 228.3 -13.74 Z M 233.37 -4.74 C 233.37 -5.7 233.94 -6.33 235.11 -6.33 C 235.95 -6.33 236.55 -6.03 236.88 -5.46 L 236.88 -4.32 C 236.55 -3.81 235.8 -3.33 234.96 -3.33 C 234.03 -3.33 233.37 -3.9 233.37 -4.74 Z M 254.46 0 L 254.46 -3.93 L 252.96 -3.93 L 252.96 -7.02 C 252.96 -9.54 254.31 -10.35 257.19 -10.35 L 257.19 -15.54 C 254.16 -15.54 253.41 -14.73 252.54 -13.08 L 251.64 -15 L 246 -15 L 246 -11.1 L 247.29 -11.1 L 247.29 -3.93 L 245.97 -3.93 L 245.97 0 Z" stroke-linecap="round" />
</g>
</g>
</g>
<g transform="matrix(1.9211538461538462 0 0 1.9211538461538462 251.4380307395062 469.87369076121513)" id="tagline-1742c9e9-3d29-4e9d-80ce-4a74239890fb-logo"  >
<g style=""  paint-order="stroke"   >
		<g transform="matrix(1 0 0 1 0 0)" id="tagline-1742c9e9-3d29-4e9d-80ce-4a74239890fb-logo-path-0"  >
<path style="stroke: none; stroke-width: 0; stroke-dasharray: none; stroke-linecap: butt; stroke-dashoffset: 0; stroke-linejoin: miter; stroke-miterlimit: 4; fill: rgb(255,255,255); fill-rule: nonzero; opacity: 1;"  paint-order="stroke"  transform=" translate(-13.835, 12.865)" d="M 1.22 -12.88 C 1.22 -5.47 7.3 0.53 14.63 0.53 C 19.53 0.53 24.17 -2.28 26.45 -6.61 L 20.86 -9.65 C 19.72 -7.33 17.21 -5.81 14.63 -5.81 C 10.75 -5.81 7.52 -9.04 7.52 -12.88 C 7.52 -16.76 10.79 -19.95 14.63 -19.95 C 17.21 -19.95 19.57 -18.58 20.82 -16.3 L 26.37 -19.27 C 24.05 -23.6 19.53 -26.26 14.63 -26.26 C 7.26 -26.26 1.22 -20.33 1.22 -12.88 Z" stroke-linecap="round" />
</g>
</g>
</g>
</svg>